<svg width="13" height="12" viewBox="0 0 13 12" fill="none" xmlns="http://www.w3.org/2000/svg">
<path d="M10.7474 0.842829C10.949 0.842829 11.1424 0.922933 11.285 1.06552C11.4276 1.2081 11.5077 1.40149 11.5077 1.60314V7.68561C11.5077 7.88726 11.4276 8.08065 11.285 8.22323C11.1424 8.36582 10.949 8.44592 10.7474 8.44592H3.45903C3.05577 8.44601 2.66906 8.60627 2.38396 8.89146L0.863337 10.4121V1.60314C0.863337 1.40149 0.94344 1.2081 1.08603 1.06552C1.22861 0.922933 1.422 0.842829 1.62365 0.842829H10.7474ZM1.62365 0.0825195C1.22035 0.0825195 0.833578 0.242727 0.548406 0.527898C0.263235 0.81307 0.103027 1.19985 0.103027 1.60314L0.103027 11.3298C0.103043 11.405 0.125375 11.4785 0.167195 11.541C0.209016 11.6036 0.268446 11.6523 0.337962 11.681C0.407479 11.7098 0.483958 11.7172 0.55772 11.7025C0.631481 11.6877 0.699209 11.6514 0.752331 11.5982L2.92149 9.429C3.06405 9.28641 3.2574 9.20627 3.45903 9.20623H10.7474C11.1507 9.20623 11.5374 9.04602 11.8226 8.76085C12.1078 8.47568 12.268 8.08891 12.268 7.68561V1.60314C12.268 1.19985 12.1078 0.81307 11.8226 0.527898C11.5374 0.242727 11.1507 0.0825195 10.7474 0.0825195L1.62365 0.0825195Z" fill="white"/>
</svg>
