<svg width="16" height="16" viewBox="0 0 16 16" fill="none" xmlns="http://www.w3.org/2000/svg">
<rect width="16" height="16" fill="#D7D7D7"/>
<g clip-path="url(#clip0_0_1)">
<rect width="375" height="1404" transform="translate(-35 -890)" fill="white"/>
<g filter="url(#filter0_d_0_1)">
<rect x="-15" y="-264" width="335" height="388" rx="7" fill="white"/>
</g>
<path d="M7.9925 0.5C3.8525 0.5 0.5 3.86 0.5 8C0.5 12.14 3.8525 15.5 7.9925 15.5C12.14 15.5 15.5 12.14 15.5 8C15.5 3.86 12.14 0.5 7.9925 0.5ZM8 14C4.685 14 2 11.315 2 8C2 4.685 4.685 2 8 2C11.315 2 14 4.685 14 8C14 11.315 11.315 14 8 14Z" fill="#131313"/>
<path d="M8.375 4.25H7.25V8.75L11.1875 11.1125L11.75 10.19L8.375 8.1875V4.25Z" fill="#131313"/>
</g>
<defs>
<filter id="filter0_d_0_1" x="-38" y="-279" width="381" height="434" filterUnits="userSpaceOnUse" color-interpolation-filters="sRGB">
<feFlood flood-opacity="0" result="BackgroundImageFix"/>
<feColorMatrix in="SourceAlpha" type="matrix" values="0 0 0 0 0 0 0 0 0 0 0 0 0 0 0 0 0 0 127 0" result="hardAlpha"/>
<feOffset dy="8"/>
<feGaussianBlur stdDeviation="11.5"/>
<feComposite in2="hardAlpha" operator="out"/>
<feColorMatrix type="matrix" values="0 0 0 0 0.487399 0 0 0 0 0.487399 0 0 0 0 0.487399 0 0 0 0.25 0"/>
<feBlend mode="normal" in2="BackgroundImageFix" result="effect1_dropShadow_0_1"/>
<feBlend mode="normal" in="SourceGraphic" in2="effect1_dropShadow_0_1" result="shape"/>
</filter>
<clipPath id="clip0_0_1">
<rect width="375" height="1404" fill="white" transform="translate(-35 -890)"/>
</clipPath>
</defs>
</svg>
