<svg width="20" height="21" viewBox="0 0 20 21" fill="none" xmlns="http://www.w3.org/2000/svg">
<path d="M10 0.75C9.16986 0.749946 8.37117 1.06755 7.76777 1.63767C7.16437 2.20779 6.802 2.98719 6.755 3.816L6.75 4H1.5C1.30998 4.00006 1.12706 4.07224 0.988209 4.20197C0.849358 4.3317 0.764927 4.5093 0.751974 4.69888C0.739021 4.88846 0.798515 5.07589 0.918432 5.2233C1.03835 5.37071 1.20975 5.4671 1.398 5.493L1.5 5.5H2.296L3.576 18.52C3.64013 19.1691 3.9329 19.7743 4.40202 20.2275C4.87114 20.6806 5.48607 20.9523 6.137 20.994L6.313 21H13.687C14.3395 21 14.9708 20.7679 15.468 20.3453C15.9652 19.9227 16.2959 19.337 16.401 18.693L16.424 18.519L17.705 5.5H18.5C18.6812 5.49999 18.8563 5.43436 18.9929 5.31523C19.1295 5.19611 19.2184 5.03155 19.243 4.852L19.25 4.75C19.25 4.56876 19.1844 4.39366 19.0652 4.25707C18.9461 4.12048 18.7816 4.03165 18.602 4.007L18.5 4H13.25C13.25 3.13805 12.9076 2.3114 12.2981 1.7019C11.6886 1.09241 10.862 0.75 10 0.75ZM3.803 5.5H16.198L14.931 18.372C14.9029 18.6592 14.7764 18.9279 14.5728 19.1324C14.3692 19.3369 14.1011 19.4647 13.814 19.494L13.687 19.5H6.313C5.713 19.5 5.204 19.075 5.088 18.498L5.068 18.372L3.804 5.5H3.803ZM8.25 8.25C8.06876 8.25001 7.89366 8.31564 7.75707 8.43477C7.62048 8.55389 7.53165 8.71845 7.507 8.898L7.5 9V16C7.50006 16.19 7.57224 16.3729 7.70197 16.5118C7.8317 16.6506 8.0093 16.7351 8.19888 16.748C8.38846 16.761 8.57589 16.7015 8.7233 16.5816C8.87071 16.4617 8.9671 16.2902 8.993 16.102L9 16V9C9 8.80109 8.92098 8.61032 8.78033 8.46967C8.63968 8.32902 8.44891 8.25 8.25 8.25ZM11.75 8.25C11.5688 8.25001 11.3937 8.31564 11.2571 8.43477C11.1205 8.55389 11.0316 8.71845 11.007 8.898L11 9V16C11.0001 16.19 11.0722 16.3729 11.202 16.5118C11.3317 16.6506 11.5093 16.7351 11.6989 16.748C11.8885 16.761 12.0759 16.7015 12.2233 16.5816C12.3707 16.4617 12.4671 16.2902 12.493 16.102L12.5 16V9C12.5 8.80109 12.421 8.61032 12.2803 8.46967C12.1397 8.32902 11.9489 8.25 11.75 8.25ZM10 2.25C10.4392 2.25002 10.8623 2.41517 11.1854 2.71268C11.5085 3.01019 11.7079 3.4183 11.744 3.856L11.75 4H8.25C8.25 3.53587 8.43437 3.09075 8.76256 2.76256C9.09075 2.43437 9.53587 2.25 10 2.25Z" fill="white"/>
</svg>
