<svg width="22" height="17" viewBox="0 0 22 17" fill="none" xmlns="http://www.w3.org/2000/svg">
<path d="M7.7 8.5C10.1303 8.5 12.1 6.59746 12.1 4.25C12.1 1.90254 10.1303 0 7.7 0C5.26969 0 3.3 1.90254 3.3 4.25C3.3 6.59746 5.26969 8.5 7.7 8.5ZM10.78 9.5625H10.2059C9.44281 9.90117 8.59375 10.0938 7.7 10.0938C6.80625 10.0938 5.96063 9.90117 5.19406 9.5625H4.62C2.06938 9.5625 0 11.5613 0 14.025V15.4063C0 16.2861 0.739063 17 1.65 17H11.0997C11.0172 16.7742 10.9828 16.5352 11.0103 16.2928L11.2441 14.2707L11.2853 13.9022L11.5569 13.6398L14.2141 11.0732C13.3719 10.1535 12.1516 9.5625 10.78 9.5625V9.5625ZM12.3372 14.3869L12.1034 16.4123C12.0656 16.751 12.3613 17.0365 12.7084 16.9967L14.8019 16.7709L19.5422 12.1922L17.0775 9.81152L12.3372 14.3869V14.3869ZM21.7594 8.92832L20.4566 7.66992C20.1369 7.36113 19.6144 7.36113 19.2947 7.66992L17.9953 8.925L17.8544 9.06113L20.3225 11.4418L21.7594 10.0539C22.0791 9.7418 22.0791 9.24043 21.7594 8.92832V8.92832Z" fill="black"/>
</svg>
