<svg width="14" height="9" viewBox="0 0 14 9" fill="none" xmlns="http://www.w3.org/2000/svg">
<path d="M6.99996 3.00299C7.35019 3.00299 7.697 3.07198 8.02057 3.20601C8.34415 3.34003 8.63816 3.53648 8.88581 3.78414C9.13346 4.03179 9.32991 4.3258 9.46394 4.64938C9.59797 4.97295 9.66696 5.31976 9.66696 5.66999C9.66696 6.02023 9.59797 6.36703 9.46394 6.69061C9.32991 7.01418 9.13346 7.30819 8.88581 7.55585C8.63816 7.8035 8.34415 7.99995 8.02057 8.13398C7.697 8.26801 7.35019 8.33699 6.99996 8.33699C6.29262 8.33699 5.61426 8.05601 5.1141 7.55585C4.61394 7.05569 4.33296 6.37733 4.33296 5.66999C4.33296 4.96266 4.61394 4.2843 5.1141 3.78414C5.61426 3.28398 6.29262 3.00299 6.99996 3.00299ZM6.99996 4.00299C6.55784 4.00299 6.13383 4.17862 5.82121 4.49125C5.50859 4.80387 5.33296 5.22788 5.33296 5.66999C5.33296 6.11211 5.50859 6.53612 5.82121 6.84874C6.13383 7.16136 6.55784 7.33699 6.99996 7.33699C7.44207 7.33699 7.86608 7.16136 8.1787 6.84874C8.49133 6.53612 8.66696 6.11211 8.66696 5.66999C8.66696 5.22788 8.49133 4.80387 8.1787 4.49125C7.86608 4.17862 7.44207 4.00299 6.99996 4.00299ZM6.99996 0.666992C10.076 0.666992 12.73 2.76699 13.467 5.70999C13.4846 5.77426 13.4892 5.84139 13.4805 5.90746C13.4718 5.97352 13.45 6.03718 13.4163 6.0947C13.3827 6.15222 13.3379 6.20243 13.2845 6.24238C13.2312 6.28233 13.1704 6.31122 13.1058 6.32735C13.0411 6.34348 12.9739 6.34653 12.9081 6.33631C12.8422 6.32609 12.7791 6.30281 12.7224 6.26784C12.6656 6.23287 12.6165 6.18691 12.5778 6.13267C12.5391 6.07843 12.5116 6.017 12.497 5.95199C12.1875 4.72827 11.4786 3.64278 10.4825 2.8675C9.48644 2.09222 8.26014 1.67148 6.9979 1.67194C5.73566 1.6724 4.50966 2.09403 3.51414 2.87003C2.51861 3.64604 1.81049 4.73204 1.50196 5.95599C1.46897 6.08379 1.38679 6.19337 1.27333 6.26081C1.15988 6.32826 1.02435 6.34812 0.896321 6.31604C0.768287 6.28397 0.65813 6.20257 0.589873 6.0896C0.521616 5.97663 0.500797 5.84125 0.531956 5.71299C0.893651 4.27145 1.72651 2.99203 2.89832 2.07785C4.07013 1.16366 5.51373 0.667103 6.99996 0.666992Z" fill="black"/>
</svg>
