<svg width="16" height="10" viewBox="0 0 16 10" fill="none" xmlns="http://www.w3.org/2000/svg">
<path d="M8 0C13 0 16 4.68134 16 4.68134C16 4.68134 13 9.36267 8 9.36267C3 9.36267 0 4.68134 0 4.68134C0 4.68134 3 0 8 0ZM8 0.851152C4.48 0.851152 1.998 3.61825 1.175 4.68134C1.997 5.74357 4.479 8.51152 8 8.51152C11.52 8.51152 14.002 5.74442 14.825 4.68134C14.003 3.6191 11.521 0.851152 8 0.851152ZM8 1.7023C8.92826 1.7023 9.8185 2.01617 10.4749 2.57484C11.1313 3.13352 11.5 3.89125 11.5 4.68134C11.5 5.47142 11.1313 6.22915 10.4749 6.78783C9.8185 7.34651 8.92826 7.66037 8 7.66037C7.07174 7.66037 6.1815 7.34651 5.52513 6.78783C4.86875 6.22915 4.5 5.47142 4.5 4.68134C4.5 3.89125 4.86875 3.13352 5.52513 2.57484C6.1815 2.01617 7.07174 1.7023 8 1.7023ZM8 2.55346C7.3372 2.55413 6.70178 2.77854 6.23311 3.17744C5.76444 3.57635 5.50079 4.11719 5.5 4.68134C5.5 5.85422 6.621 6.80922 8 6.80922C9.379 6.80922 10.5 5.85422 10.5 4.68134C10.5 3.50845 9.379 2.55346 8 2.55346Z" fill="white"/>
</svg>
