<svg width="16" height="17" viewBox="0 0 16 17" fill="none" xmlns="http://www.w3.org/2000/svg">
<path d="M7.14125 0.577518C7.37334 0.358098 7.68061 0.23584 8 0.23584C8.31939 0.23584 8.62666 0.358098 8.85875 0.577518L14.9137 6.30127C15.2888 6.65502 15.5 7.14877 15.5 7.66377V14.6263C15.5 15.1236 15.3025 15.6005 14.9508 15.9521C14.5992 16.3037 14.1223 16.5013 13.625 16.5013H11.125C10.8787 16.5013 10.6347 16.4527 10.4072 16.3584C10.1796 16.2641 9.97286 16.1259 9.79873 15.9517C9.62461 15.7774 9.48652 15.5706 9.39237 15.3429C9.29821 15.1153 9.24984 14.8714 9.25 14.625V11.5C9.25 11.3343 9.18415 11.1753 9.06694 11.0581C8.94973 10.9409 8.79076 10.875 8.625 10.875H7.375C7.20924 10.875 7.05027 10.9409 6.93306 11.0581C6.81585 11.1753 6.75 11.3343 6.75 11.5V14.625C6.75 15.1223 6.55246 15.5992 6.20083 15.9508C5.84919 16.3025 5.37228 16.5 4.875 16.5H2.375C1.87772 16.5 1.40081 16.3025 1.04917 15.9508C0.697544 15.5992 0.5 15.1223 0.5 14.625V7.66252C0.5 7.14752 0.7125 6.65377 1.0875 6.30002L7.14125 0.575018V0.577518ZM8 1.48502L1.945 7.21002C1.88353 7.26829 1.83455 7.33845 1.80103 7.41624C1.76751 7.49403 1.75014 7.57782 1.75 7.66252V14.625C1.75 14.7908 1.81585 14.9498 1.93306 15.067C2.05027 15.1842 2.20924 15.25 2.375 15.25H4.875C5.04076 15.25 5.19973 15.1842 5.31694 15.067C5.43415 14.9498 5.5 14.7908 5.5 14.625V11.5C5.5 11.0027 5.69754 10.5258 6.04917 10.1742C6.40081 9.82256 6.87772 9.62502 7.375 9.62502H8.625C9.12228 9.62502 9.59919 9.82256 9.95083 10.1742C10.3025 10.5258 10.5 11.0027 10.5 11.5V14.625C10.5 14.7908 10.5658 14.9498 10.6831 15.067C10.8003 15.1842 10.9592 15.25 11.125 15.25H13.625C13.7908 15.25 13.9497 15.1842 14.0669 15.067C14.1842 14.9498 14.25 14.7908 14.25 14.625V7.66252C14.25 7.57761 14.2327 7.49358 14.1992 7.41557C14.1657 7.33755 14.1166 7.26719 14.055 7.20877L8 1.48502Z" fill="black"/>
</svg>
