<svg width="19" height="20" viewBox="0 0 19 20" fill="none" xmlns="http://www.w3.org/2000/svg">
<path fill-rule="evenodd" clip-rule="evenodd" d="M16 20C16.7956 20 17.5587 19.6839 18.1213 19.1213C18.6839 18.5587 19 17.7956 19 17V3C19 2.20435 18.6839 1.44129 18.1213 0.878679C17.5587 0.316071 16.7956 0 16 0H10C9.20435 0 8.44129 0.316071 7.87868 0.878679C7.31607 1.44129 7 2.20435 7 3V17C7 17.7956 7.31607 18.5587 7.87868 19.1213C8.44129 19.6839 9.20435 20 10 20H16ZM5.707 14.707C5.51947 14.8945 5.26516 14.9998 5 14.9998C4.73484 14.9998 4.48053 14.8945 4.293 14.707L0.292999 10.707C0.105528 10.5195 0.000213623 10.2652 0.000213623 10C0.000213623 9.73484 0.105528 9.48053 0.292999 9.293L4.293 5.293C4.4816 5.11084 4.7342 5.01005 4.9964 5.01233C5.2586 5.0146 5.50941 5.11977 5.69482 5.30518C5.88023 5.49059 5.9854 5.7414 5.98767 6.0036C5.98995 6.2658 5.88916 6.5184 5.707 6.707L3.414 9H12C12.2652 9 12.5196 9.10536 12.7071 9.29289C12.8946 9.48043 13 9.73478 13 10C13 10.2652 12.8946 10.5196 12.7071 10.7071C12.5196 10.8946 12.2652 11 12 11H3.414L5.707 13.293C5.89447 13.4805 5.99979 13.7348 5.99979 14C5.99979 14.2652 5.89447 14.5195 5.707 14.707Z" fill="white"/>
</svg>
