<svg width="34" height="34" viewBox="0 0 34 34" fill="none" xmlns="http://www.w3.org/2000/svg">
<path d="M18.6666 3.78183V0.333496H15.3333V3.78183C12.4004 4.1563 9.67487 5.49378 7.5842 7.58445C5.49354 9.67511 4.15605 12.4007 3.78158 15.3335H0.333252V18.6668H3.78158C4.15551 21.5999 5.49281 24.3257 7.58358 26.4165C9.67435 28.5073 12.4002 29.8446 15.3333 30.2185V33.6668H18.6666V30.2185C21.5997 29.8449 24.3258 28.5076 26.4166 26.4168C28.5074 24.326 29.8446 21.6 30.2183 18.6668H33.6666V15.3335H30.2183C29.8443 12.4004 28.507 9.67459 26.4163 7.58382C24.3255 5.49306 21.5996 4.15575 18.6666 3.78183ZM16.9999 27.0002C11.4849 27.0002 6.99992 22.5152 6.99992 17.0002C6.99992 11.4852 11.4849 7.00016 16.9999 7.00016C22.5149 7.00016 26.9999 11.4852 26.9999 17.0002C26.9999 22.5152 22.5149 27.0002 16.9999 27.0002Z" fill="black"/>
</svg>
