<svg width="16" height="14" viewBox="0 0 16 14" fill="none" xmlns="http://www.w3.org/2000/svg">
<path d="M14.7094 0.251117C14.8031 0.332216 14.875 0.425577 14.925 0.525321C14.9719 0.625066 14.9719 0.73412 15 0.848494V3.40461C15 3.87541 14.5531 4.25577 14 4.25577C13.4469 4.25577 13 3.87541 13 3.40461V2.90722L9.70625 5.70805C9.3375 6.02457 8.74688 6.04319 8.35 5.75326L5.47188 3.67326L2.65063 5.75326C2.23156 6.05915 1.6 6.01659 1.24063 5.66017C0.88125 5.30375 0.93 4.76646 1.34906 4.46058L4.85 1.90712C5.225 1.63395 5.775 1.63395 6.15 1.90712L8.94687 3.94722L11.5844 1.70231H11C10.4469 1.70231 10 1.32115 10 0.851153C10 0.381157 10.4469 0 11 0H13.9719C14.275 0 14.525 0.0945312 14.7063 0.247499L14.7094 0.251117ZM0 8.08596C0 7.3811 0.671562 6.80923 1.5 6.80923H14.5C15.3281 6.80923 16 7.3811 16 8.08596V12.3417C16 13.0466 15.3281 13.6185 14.5 13.6185H1.5C0.671562 13.6185 0 13.0466 0 12.3417V8.08596ZM1.5 12.3417H3C3 11.6369 2.32844 11.065 1.5 11.065V12.3417ZM1.5 8.08596V9.36269C2.32844 9.36269 3 8.79082 3 8.08596H1.5ZM14.5 11.065C13.6719 11.065 13 11.6369 13 12.3417H14.5V11.065ZM13 8.08596C13 8.79082 13.6719 9.36269 14.5 9.36269V8.08596H13ZM8 8.51153C6.89688 8.51153 6 9.27491 6 10.2138C6 11.1528 6.89688 11.9161 8 11.9161C9.10313 11.9161 10 11.1528 10 10.2138C10 9.27491 9.10313 8.51153 8 8.51153Z" fill="white"/>
</svg>
