<svg width="20" height="15" viewBox="0 0 20 15" fill="none" xmlns="http://www.w3.org/2000/svg">
<path d="M17.8477 9.66656V7.89596C17.8477 7.58905 17.5998 7.34116 17.2929 7.34116H10.545V6.23158H14.157C14.4639 6.23158 14.7118 5.9837 14.7118 5.67679V3.4773C14.7118 2.773 14.3577 2.13164 13.7675 1.76178C12.6382 1.04961 11.3319 0.671875 9.99017 0.671875C8.64844 0.671875 7.34212 1.04961 6.21287 1.76178C5.62267 2.13558 5.26854 2.77693 5.26854 3.4773V5.67679C5.26854 5.9837 5.51643 6.23158 5.82333 6.23158H9.43538V7.34116H2.69133C2.38442 7.34116 2.13654 7.58905 2.13654 7.89596V9.66656C0.916783 9.92232 1.95581e-06 11.0083 1.95581e-06 12.3028C-0.00393273 13.7862 1.20402 14.9941 2.69133 14.9941C4.17864 14.9941 5.38658 13.7862 5.38658 12.2989C5.38658 11.0044 4.4698 9.91838 3.25005 9.66263V8.44681H9.43931V9.66263C8.21956 9.91838 7.30278 11.0044 7.30278 12.2989C7.30278 13.7822 8.51072 14.9941 9.99804 14.9941C11.4814 14.9941 12.6933 13.7862 12.6933 12.2989C12.6933 11.0044 11.7765 9.91838 10.5568 9.66263V8.44681H16.746V9.66263C15.5263 9.91838 14.6095 11.0044 14.6095 12.2989C14.6095 13.7822 15.8174 14.9941 17.3047 14.9941C18.7921 14.9941 20 13.7862 20 12.2989C19.9843 11.0044 19.0675 9.92232 17.8477 9.66656ZM4.27307 12.2989C4.27307 13.1724 3.56483 13.8806 2.69133 13.8806C1.81783 13.8806 1.10958 13.1724 1.10958 12.2989C1.10958 11.4254 1.81783 10.7171 2.69133 10.7171C3.56089 10.7171 4.27307 11.4293 4.27307 12.2989ZM6.37813 5.11807V3.4773C6.37813 3.16253 6.53945 2.86349 6.80307 2.70217C7.75526 2.10017 8.86091 1.78539 9.99017 1.78539C11.1194 1.78539 12.2211 2.1041 13.1773 2.70217C13.4409 2.86743 13.6022 3.16647 13.6022 3.48124V5.11807H6.37813V5.11807ZM11.5719 12.2989C11.5719 13.1724 10.8637 13.8806 9.99017 13.8806C9.11667 13.8806 8.40842 13.1724 8.40842 12.2989C8.40842 11.4254 9.11667 10.7171 9.99017 10.7171C10.8637 10.7171 11.5719 11.4293 11.5719 12.2989ZM17.289 13.8845C16.4155 13.8845 15.7073 13.1763 15.7073 12.3028C15.7073 11.4293 16.4155 10.7211 17.289 10.7211C18.1625 10.7211 18.8707 11.4293 18.8707 12.3028C18.8747 13.1724 18.1625 13.8845 17.289 13.8845Z" fill="url(#paint0_linear_376_1739)"/>
<defs>
<linearGradient id="paint0_linear_376_1739" x1="10" y1="0.671875" x2="10" y2="14.9941" gradientUnits="userSpaceOnUse">
<stop stop-color="#79D654"/>
<stop offset="1" stop-color="#44A837"/>
</linearGradient>
</defs>
</svg>
