<svg width="15" height="17" viewBox="0 0 15 17" fill="none" xmlns="http://www.w3.org/2000/svg">
<path d="M14.3311 11.6658C14.2695 11.5916 14.209 11.5174 14.1496 11.4457C13.3332 10.4583 12.8393 9.86229 12.8393 7.06684C12.8393 5.61957 12.4931 4.43207 11.8106 3.54145C11.3074 2.8835 10.6272 2.38438 9.73064 2.01551C9.7191 2.00909 9.7088 2.00067 9.70021 1.99064C9.37773 0.910762 8.49527 0.1875 7.5 0.1875C6.50472 0.1875 5.62263 0.910762 5.30015 1.98953C5.29155 1.99919 5.28139 2.00734 5.2701 2.01365C3.17787 2.87496 2.16107 4.52744 2.16107 7.06572C2.16107 9.86229 1.66789 10.4583 0.850741 11.4446C0.791366 11.5163 0.730877 11.589 0.669276 11.6647C0.510151 11.8566 0.409333 12.0901 0.378752 12.3375C0.348171 12.5849 0.389107 12.8359 0.496717 13.0607C0.725682 13.5432 1.21367 13.8426 1.77068 13.8426H13.2334C13.7878 13.8426 14.2725 13.5435 14.5022 13.0633C14.6102 12.8384 14.6516 12.5872 14.6212 12.3395C14.5909 12.0918 14.4902 11.858 14.3311 11.6658V11.6658ZM7.5 16.8125C8.03624 16.8121 8.56237 16.6665 9.02258 16.3913C9.48279 16.116 9.85993 15.7213 10.114 15.2491C10.126 15.2265 10.1319 15.2011 10.1311 15.1755C10.1304 15.1499 10.1231 15.125 10.1099 15.103C10.0967 15.0811 10.078 15.063 10.0557 15.0504C10.0334 15.0378 10.0082 15.0312 9.98261 15.0312H5.01812C4.99249 15.0312 4.96727 15.0377 4.94492 15.0503C4.92257 15.0628 4.90385 15.0809 4.89059 15.1029C4.87732 15.1248 4.86996 15.1498 4.86923 15.1754C4.86849 15.201 4.8744 15.2264 4.88639 15.2491C5.14041 15.7213 5.51749 16.1159 5.97763 16.3912C6.43777 16.6664 6.96382 16.812 7.5 16.8125Z" fill="white"/>
</svg>
