<svg width="18" height="18" viewBox="0 0 18 18" fill="none" xmlns="http://www.w3.org/2000/svg">
<g clip-path="url(#clip0_510_1865)">
<path d="M8.34144 7.34617V7.61441C8.34144 7.70835 8.41762 7.7845 8.51152 7.7845H9.48841C9.58235 7.7845 9.6585 7.70831 9.6585 7.61441V7.34617C11.2005 7.03908 12.3665 5.67568 12.3665 4.04475C12.3665 2.18846 10.8563 0.678223 8.99995 0.678223C7.14363 0.678223 5.63342 2.18843 5.63342 4.04475C5.63346 5.67568 6.79941 7.03908 8.34144 7.34617Z" fill="#39B54A"/>
<path d="M6.07447 10.5887C5.55915 10.5887 1.17373 10.5887 0.658547 10.5887C0.294855 10.5887 0 10.8836 0 11.2473V16.6632C0 17.0269 0.294855 17.3218 0.658547 17.3218H6.07447C6.43816 17.3218 6.73302 17.0269 6.73302 16.6632V11.2473C6.73302 10.8836 6.4382 10.5887 6.07447 10.5887Z" fill="#39B54A"/>
<path d="M17.3414 10.5887C16.8261 10.5887 12.4407 10.5887 11.9255 10.5887C11.5618 10.5887 11.267 10.8836 11.267 11.2473V16.6632C11.267 17.0269 11.5618 17.3218 11.9255 17.3218H17.3414C17.7051 17.3218 18 17.0269 18 16.6632V11.2473C18 10.8836 17.7051 10.5887 17.3414 10.5887Z" fill="#39B54A"/>
<path d="M2.87809 9.93021C3.8541 9.93021 4.02503 9.98052 4.02503 9.76009H13.975C13.975 9.85402 14.0511 9.93021 14.1451 9.93021H15.122C15.2159 9.93021 15.2921 9.85402 15.2921 9.76009V9.10154C15.2921 8.73785 14.9972 8.44299 14.6335 8.44299H3.36655C3.00286 8.44299 2.70801 8.73785 2.70801 9.10154V9.76009C2.70801 9.85402 2.78416 9.93021 2.87809 9.93021Z" fill="#39B54A"/>
</g>
<defs>
<clipPath id="clip0_510_1865">
<rect width="18" height="18" fill="white"/>
</clipPath>
</defs>
</svg>
