<svg width="16" height="18" viewBox="0 0 16 18" fill="none" xmlns="http://www.w3.org/2000/svg">
<path d="M10.4666 11.0076C10.3565 10.9716 9.66074 10.658 10.0955 9.33637H10.0893C11.2226 8.16914 12.0887 6.29091 12.0887 4.44176C12.0887 1.59845 10.198 0.10791 8.00058 0.10791C5.80181 0.10791 3.9215 1.59776 3.9215 4.44176C3.9215 6.29853 4.78274 8.18437 5.92297 9.34883C6.36743 10.5147 5.57266 10.9474 5.4065 11.0083C3.10527 11.8404 0.405273 13.3573 0.405273 14.8548V15.4162C0.405273 17.4564 4.36112 17.9203 8.02204 17.9203C11.6885 17.9203 15.5945 17.4564 15.5945 15.4162V14.8548C15.5945 13.3123 12.8814 11.8072 10.4666 11.0076Z" fill="#39B54A"/>
</svg>
