<svg width="19" height="13" viewBox="0 0 19 13" fill="none" xmlns="http://www.w3.org/2000/svg">
<path d="M14.25 5.12499C14.2429 5.12499 14.2365 5.12657 14.2302 5.12736C14.1339 3.79714 13.5247 2.55634 12.531 1.6668C11.5373 0.777258 10.2368 0.308558 8.9041 0.359607C7.57138 0.410656 6.31061 0.977462 5.38786 1.94041C4.4651 2.90336 3.95254 4.18714 3.95832 5.52082C3.95988 5.92607 4.00931 6.32971 4.10557 6.72336C4.0557 6.72099 4.00899 6.70832 3.95832 6.70832C3.11847 6.70832 2.31302 7.04195 1.71915 7.63582C1.12529 8.22968 0.791656 9.03514 0.791656 9.87499C0.791656 10.8266 1.21995 11.6697 1.88416 12.25H16.6036C17.5718 11.5288 18.2083 10.384 18.2083 9.08332C18.2083 8.56351 18.1059 8.04878 17.907 7.56853C17.7081 7.08829 17.4165 6.65192 17.049 6.28436C16.6814 5.91679 16.245 5.62522 15.7648 5.4263C15.2845 5.22737 14.7698 5.12499 14.25 5.12499ZM10.2917 8.29166V10.6667H8.70832V8.29166H6.33332L9.49999 4.33332L12.6667 8.29166H10.2917Z" fill="white"/>
</svg>
