<svg width="25" height="22" viewBox="0 0 25 22" fill="none" xmlns="http://www.w3.org/2000/svg">
<path d="M23.8788 11.0264C24.0143 10.965 24.1313 10.8662 24.2151 10.7422C24.299 10.6183 24.346 10.4746 24.3504 10.329C24.3549 10.1834 24.3164 10.0423 24.24 9.9232C24.1635 9.8041 24.0523 9.71222 23.9202 9.65895L2.77648 1.12758L2.77546 1.12656L2.11936 0.860601C1.99503 0.810289 1.85711 0.796229 1.72082 0.819972C1.58453 0.843716 1.45519 0.90434 1.34707 0.995148C1.23896 1.08596 1.15628 1.20341 1.10817 1.33455C1.06006 1.46568 1.0484 1.60538 1.07446 1.73823L1.21088 2.43818L1.20974 2.44137L2.86043 10.9802L0.688717 19.6349L0.688588 19.6391L0.509456 20.3486C0.475773 20.4831 0.479356 20.6221 0.519814 20.7502C0.560273 20.8783 0.636036 20.9906 0.738765 21.0747C0.841494 21.1589 0.967205 21.2115 1.10206 21.227C1.23692 21.2425 1.37569 21.2201 1.5031 21.1623L23.8788 11.0264ZM19.9609 11.205L4.19583 11.6827L4.34284 11.0971C4.36987 10.9897 4.37323 10.8791 4.35266 10.7732L4.2409 10.1954L20.006 9.71767L21.718 10.4088L19.962 11.206L19.9609 11.205Z" fill="#FFCE31"/>
</svg>
