<svg width="16" height="16" viewBox="0 0 16 16" fill="none" xmlns="http://www.w3.org/2000/svg">
<path d="M8.00883 5.86599C7.48324 5.86599 6.99105 6.0699 6.6184 6.44255C6.2475 6.81521 6.04184 7.3074 6.04184 7.83298C6.04184 8.35857 6.2475 8.85076 6.6184 9.22341C6.99105 9.59431 7.48324 9.79998 8.00883 9.79998C8.53441 9.79998 9.0266 9.59431 9.39926 9.22341C9.77016 8.85076 9.97582 8.35857 9.97582 7.83298C9.97582 7.3074 9.77016 6.81521 9.39926 6.44255C9.21724 6.25914 9.0006 6.11372 8.7619 6.01474C8.52321 5.91576 8.26723 5.8652 8.00883 5.86599ZM15.2563 10.0056L14.1067 9.02302C14.1612 8.68904 14.1893 8.34802 14.1893 8.00876C14.1893 7.66951 14.1612 7.32673 14.1067 6.99451L15.2563 6.01189C15.3431 5.93755 15.4053 5.83853 15.4345 5.728C15.4637 5.61747 15.4586 5.50068 15.4198 5.39314L15.4039 5.34744C15.0876 4.46271 14.6135 3.64263 14.0047 2.92693L13.9731 2.89001C13.8992 2.80309 13.8006 2.74061 13.6905 2.7108C13.5804 2.68099 13.4638 2.68525 13.3561 2.72302L11.9288 3.23103C11.4014 2.79861 10.8143 2.45759 10.178 2.22029L9.90199 0.727905C9.88117 0.61548 9.82663 0.51205 9.74563 0.431358C9.66462 0.350667 9.56098 0.296532 9.44848 0.276147L9.40102 0.267358C8.48695 0.102124 7.52367 0.102124 6.60961 0.267358L6.56215 0.276147C6.44964 0.296532 6.346 0.350667 6.265 0.431358C6.18399 0.51205 6.12945 0.61548 6.10863 0.727905L5.8309 2.22732C5.2006 2.46652 4.61343 2.8067 4.09242 3.23455L2.65453 2.72302C2.54689 2.68495 2.43022 2.68054 2.32001 2.71037C2.2098 2.74019 2.11128 2.80285 2.03754 2.89001L2.0059 2.92693C1.39821 3.6434 0.924266 4.46327 0.60668 5.34744L0.590859 5.39314C0.511758 5.61287 0.576797 5.85896 0.754336 6.01189L1.91801 7.00505C1.86352 7.33552 1.83715 7.67302 1.83715 8.00701C1.83715 8.34451 1.86352 8.68201 1.91801 9.00896L0.757852 10.0021C0.671008 10.0765 0.608853 10.1755 0.579651 10.286C0.55045 10.3965 0.555585 10.5133 0.594375 10.6209L0.610195 10.6666C0.928359 11.5508 1.3977 12.3681 2.00941 13.0871L2.04105 13.124C2.11498 13.2109 2.2135 13.2734 2.32364 13.3032C2.43379 13.333 2.55038 13.3288 2.65805 13.291L4.09594 12.7795C4.61977 13.2101 5.20336 13.5511 5.83441 13.7867L6.11215 15.2861C6.13297 15.3985 6.18751 15.502 6.26851 15.5827C6.34952 15.6633 6.45316 15.7175 6.56566 15.7379L6.61313 15.7467C7.53618 15.9128 8.48148 15.9128 9.40453 15.7467L9.45199 15.7379C9.5645 15.7175 9.66814 15.6633 9.74914 15.5827C9.83015 15.502 9.88469 15.3985 9.90551 15.2861L10.1815 13.7937C10.8178 13.5547 11.4049 13.2154 11.9323 12.783L13.3596 13.291C13.4672 13.3291 13.5839 13.3335 13.6941 13.3036C13.8043 13.2738 13.9029 13.2112 13.9766 13.124L14.0082 13.0871C14.62 12.3646 15.0893 11.5508 15.4075 10.6666L15.4233 10.6209C15.4989 10.4029 15.4338 10.1586 15.2563 10.0056ZM8.00883 10.9232C6.30199 10.9232 4.91859 9.53982 4.91859 7.83298C4.91859 6.12615 6.30199 4.74275 8.00883 4.74275C9.71566 4.74275 11.0991 6.12615 11.0991 7.83298C11.0991 9.53982 9.71566 10.9232 8.00883 10.9232Z" fill="#39B54A"/>
</svg>
