<svg width="4" height="14" viewBox="0 0 4 14" fill="none" xmlns="http://www.w3.org/2000/svg">
<path d="M2.00072 5.46006C1.79839 5.46006 1.59805 5.49991 1.41112 5.57734C1.2242 5.65477 1.05435 5.76825 0.911283 5.91132C0.768216 6.05439 0.654728 6.22423 0.577301 6.41116C0.499873 6.59808 0.460022 6.79843 0.460022 7.00076C0.460022 7.20309 0.499873 7.40343 0.577301 7.59036C0.654728 7.77729 0.768216 7.94713 0.911283 8.0902C1.05435 8.23326 1.2242 8.34675 1.41112 8.42418C1.59805 8.50161 1.79839 8.54146 2.00072 8.54146C2.40934 8.54137 2.80119 8.37895 3.09006 8.08995C3.37893 7.80095 3.54116 7.40903 3.54107 7.00041C3.54098 6.59179 3.37857 6.19994 3.08956 5.91107C2.80056 5.6222 2.40864 5.45997 2.00002 5.46006H2.00072ZM2.00072 3.64006C2.20296 3.63997 2.4032 3.60004 2.59 3.52257C2.77681 3.44509 2.94652 3.33158 3.08946 3.18851C3.2324 3.04544 3.34576 2.87562 3.42306 2.68874C3.50037 2.50187 3.54011 2.30159 3.54002 2.09936C3.53993 1.89712 3.50001 1.69689 3.42253 1.51008C3.34505 1.32327 3.23154 1.15356 3.08847 1.01062C2.9454 0.867682 2.77558 0.754324 2.58871 0.677016C2.40183 0.599709 2.20156 0.559967 1.99932 0.560059C1.59089 0.560244 1.19926 0.722672 0.910583 1.01161C0.621908 1.30055 0.459836 1.69233 0.460022 2.10076C0.460208 2.50919 0.622635 2.90082 0.911573 3.1895C1.20051 3.47817 1.59229 3.64024 2.00072 3.64006ZM2.00072 10.3601C1.5921 10.3601 1.20022 10.5224 0.911283 10.8113C0.622346 11.1003 0.460022 11.4921 0.460022 11.9008C0.460022 12.3094 0.622346 12.7013 0.911283 12.9902C1.20022 13.2791 1.5921 13.4415 2.00072 13.4415C2.40934 13.4415 2.80122 13.2791 3.09016 12.9902C3.3791 12.7013 3.54142 12.3094 3.54142 11.9008C3.54142 11.4921 3.3791 11.1003 3.09016 10.8113C2.80122 10.5224 2.40934 10.3601 2.00072 10.3601Z" fill="black"/>
</svg>
