<svg width="36" height="40" viewBox="0 0 36 40" fill="none" xmlns="http://www.w3.org/2000/svg">
<rect width="36" height="40" fill="#D7D7D7"/>
<rect width="375" height="812" transform="translate(-261 -580)" fill="white"/>
<rect x="-52" y="-30" width="140" height="140" rx="10" fill="#39B54A"/>
<g clip-path="url(#clip0_0_1)">
<path d="M34.1008 16L31.6008 14L35.3508 11H23.9102C23.9681 10.6698 23.9981 10.3353 24 10V7H25.5C25.7652 7 26.0196 6.89464 26.2071 6.70711C26.3947 6.51957 26.5 6.26522 26.5 6C26.5 5.73478 26.3947 5.48043 26.2071 5.29289C26.0196 5.10536 25.7652 5 25.5 5H24V2.5C24 1.83696 23.7366 1.20107 23.2678 0.732233C22.7989 0.263392 22.1631 0 21.5 0L14.5 0C13.837 0 13.2011 0.263392 12.7322 0.732233C12.2634 1.20107 12 1.83696 12 2.5V5H10.5C10.2348 5 9.98044 5.10536 9.79291 5.29289C9.60537 5.48043 9.50001 5.73478 9.50001 6C9.50001 6.26522 9.60537 6.51957 9.79291 6.70711C9.98044 6.89464 10.2348 7 10.5 7H12V10C12.0022 10.3353 12.0325 10.6698 12.0906 11H0.649231L4.39923 14L1.89923 16L4.39923 18L0.649231 21H7.78048L4.21329 38.8344L8.00001 34.1008L10 36.6008L12 34.1008L14 36.6008L16 34.1008L17 35.3508V39C17 39.2652 17.1054 39.5196 17.2929 39.7071C17.4804 39.8946 17.7348 40 18 40C18.2652 40 18.5196 39.8946 18.7071 39.7071C18.8947 39.5196 19 39.2652 19 39V35.3508L20 34.1008L22 36.6008L24 34.1008L26 36.6008L28 34.1008L31.7867 38.8336L28.2195 21H35.35L31.6 18L34.1008 16ZM17.2813 26.125C17.1992 26.2276 17.0978 26.3131 16.9827 26.3765C16.8676 26.4399 16.7411 26.4801 16.6105 26.4946C16.4799 26.5091 16.3477 26.4977 16.2215 26.4611C16.0953 26.4245 15.9776 26.3634 15.875 26.2812L15.4109 25.9102L14.65 26.8406L15.1242 27.2203C15.3314 27.3861 15.4643 27.6274 15.4936 27.8911C15.5229 28.1548 15.4462 28.4194 15.2805 28.6266C15.1147 28.8338 14.8734 28.9666 14.6097 28.9959C14.346 29.0252 14.0814 28.9486 13.8742 28.7828L13.3828 28.3922L12.7727 29.1375C12.6033 29.338 12.3618 29.4639 12.1004 29.488C11.839 29.5121 11.5786 29.4324 11.3754 29.2661C11.1723 29.0999 11.0426 28.8604 11.0145 28.5994C10.9863 28.3384 11.062 28.0768 11.225 27.8711L11.8211 27.143L11.3742 26.7852C11.167 26.6194 11.0342 26.3781 11.0049 26.1144C10.9756 25.8507 11.0522 25.5861 11.218 25.3789C11.3837 25.1717 11.625 25.0388 11.8887 25.0095C12.1525 24.9802 12.417 25.0569 12.6242 25.2227L13.0883 25.5938L13.8492 24.6633L13.375 24.2836C13.1678 24.1178 13.0349 23.8766 13.0056 23.6128C12.9911 23.4822 13.0025 23.3501 13.0391 23.2239C13.0756 23.0977 13.1367 22.9799 13.2188 22.8773C13.3008 22.7747 13.4023 22.6893 13.5174 22.6259C13.6325 22.5626 13.7589 22.5225 13.8895 22.508C14.1532 22.4787 14.4178 22.5553 14.625 22.7211L15.1164 23.1117L15.7266 22.3664C15.896 22.1659 16.1374 22.04 16.3988 22.0159C16.6602 21.9918 16.9206 22.0715 17.1238 22.2378C17.327 22.404 17.4566 22.6435 17.4848 22.9045C17.5129 23.1655 17.4373 23.4271 17.2742 23.6328L16.6781 24.3609L17.125 24.7188C17.2277 24.8008 17.3131 24.9023 17.3765 25.0173C17.44 25.1324 17.4801 25.2589 17.4946 25.3895C17.5091 25.5201 17.4977 25.6523 17.4611 25.7785C17.4245 25.9047 17.3634 26.0224 17.2813 26.125Z" fill="white"/>
</g>
<defs>
<clipPath id="clip0_0_1">
<rect width="40" height="40" fill="white" transform="translate(-2)"/>
</clipPath>
</defs>
</svg>
