<svg width="16" height="20" viewBox="0 0 16 20" fill="none" xmlns="http://www.w3.org/2000/svg">
<path d="M15.5621 9.60938L14.8004 9L15.5625 8.39023C15.6212 8.34344 15.6686 8.28402 15.7011 8.21639C15.7337 8.14877 15.7506 8.07467 15.7506 7.99961C15.7506 7.92455 15.7337 7.85045 15.7011 7.78283C15.6686 7.7152 15.6212 7.65578 15.5625 7.60898L14.8004 7L15.5625 6.39023C15.6433 6.32548 15.7021 6.23722 15.7306 6.13765C15.7591 6.03808 15.756 5.93212 15.7217 5.83439C15.6874 5.73667 15.6236 5.652 15.5391 5.5921C15.4546 5.5322 15.3536 5.50002 15.25 5.5H10.9574C10.9855 5.33481 10.9998 5.16756 11 5V3.5H11.75C11.8826 3.5 12.0098 3.44732 12.1035 3.35355C12.1973 3.25979 12.25 3.13261 12.25 3C12.25 2.86739 12.1973 2.74021 12.1035 2.64645C12.0098 2.55268 11.8826 2.5 11.75 2.5H11V1.25C11 0.918479 10.8683 0.600537 10.6339 0.366117C10.3995 0.131696 10.0815 0 9.74999 0L6.24999 0C5.91847 0 5.60053 0.131696 5.36611 0.366117C5.13169 0.600537 4.99999 0.918479 4.99999 1.25V2.5H4.24999C4.11739 2.5 3.99021 2.55268 3.89644 2.64645C3.80267 2.74021 3.74999 2.86739 3.74999 3C3.74999 3.13261 3.80267 3.25979 3.89644 3.35355C3.99021 3.44732 4.11739 3.5 4.24999 3.5H4.99999V5C5.00022 5.16756 5.01446 5.33481 5.04257 5.5H0.749994C0.646422 5.50002 0.545412 5.5322 0.460919 5.5921C0.376426 5.652 0.312619 5.73667 0.278314 5.83439C0.244009 5.93212 0.240899 6.03808 0.269414 6.13765C0.297928 6.23722 0.356659 6.32548 0.437494 6.39023L1.1996 7L0.437494 7.60977C0.378872 7.6566 0.331543 7.71604 0.299018 7.78366C0.266492 7.85128 0.249603 7.92535 0.249603 8.00039C0.249603 8.07543 0.266492 8.1495 0.299018 8.21712C0.331543 8.28474 0.378872 8.34418 0.437494 8.39102L1.1996 9L0.437494 9.60938C0.356659 9.67413 0.297928 9.76239 0.269414 9.86195C0.240899 9.96152 0.244009 10.0675 0.278314 10.1652C0.312619 10.2629 0.376426 10.3476 0.460919 10.4075C0.545412 10.4674 0.646422 10.4996 0.749994 10.4996H2.89023L1.50976 17.402C1.48785 17.5118 1.50344 17.6258 1.55404 17.7257C1.60463 17.8256 1.6873 17.9056 1.7888 17.9529C1.89029 18.0003 2.00474 18.0121 2.11379 17.9867C2.22284 17.9612 2.32019 17.8999 2.39023 17.8125L2.99999 17.0504L3.60976 17.8125C3.7996 18.0496 4.20078 18.0496 4.39101 17.8125L5.00078 17.0504L5.60976 17.8125C5.7996 18.0496 6.20078 18.0496 6.39101 17.8125L7.00078 17.0504L7.50078 17.6754V19.5C7.50078 19.6326 7.55345 19.7598 7.64722 19.8536C7.74099 19.9473 7.86817 20 8.00078 20C8.13338 20 8.26056 19.9473 8.35433 19.8536C8.4481 19.7598 8.50078 19.6326 8.50078 19.5V17.6754L9.00078 17.0504L9.60976 17.8125C9.7996 18.0496 10.2008 18.0496 10.391 17.8125L11.0008 17.0504L11.6098 17.8125C11.7996 18.0496 12.2008 18.0496 12.391 17.8125L13 17.0504L13.6098 17.8125C13.6798 17.8999 13.7772 17.9612 13.8862 17.9867C13.9953 18.0121 14.1097 18.0003 14.2112 17.9529C14.3127 17.9056 14.3954 17.8256 14.446 17.7257C14.4965 17.6258 14.5121 17.5118 14.4902 17.402L13.1098 10.5H15.25C15.3536 10.5 15.4546 10.4678 15.5391 10.4079C15.6236 10.348 15.6874 10.2633 15.7217 10.1656C15.756 10.0679 15.7591 9.96192 15.7306 9.86235C15.7021 9.76278 15.6433 9.67452 15.5625 9.60977L15.5621 9.60938ZM5.99999 1.25C6.0001 1.18373 6.02647 1.1202 6.07333 1.07334C6.12019 1.02648 6.18372 1.0001 6.24999 1H9.74999C9.81627 1.0001 9.8798 1.02648 9.92666 1.07334C9.97352 1.1202 9.99989 1.18373 10 1.25V2.5H5.99999V1.25ZM10 3.5V5C10 5.53043 9.78928 6.03914 9.41421 6.41421C9.03913 6.78929 8.53043 7 7.99999 7C7.46956 7 6.96085 6.78929 6.58578 6.41421C6.21071 6.03914 5.99999 5.53043 5.99999 5V3.5H10ZM13.6879 9.39023L13.825 9.5H12.5C12.426 9.50001 12.353 9.51643 12.2861 9.54808C12.2193 9.57973 12.1603 9.62582 12.1134 9.68302C12.0665 9.74023 12.0329 9.80713 12.0149 9.8789C11.997 9.95066 11.9953 10.0255 12.0098 10.098L13.1426 15.7711C13.0471 15.7441 12.9459 15.7454 12.8512 15.775C12.7565 15.8045 12.6725 15.861 12.6094 15.9375L12 16.6996L11.3902 15.9375C11.3434 15.8789 11.284 15.8315 11.2163 15.799C11.1487 15.7665 11.0746 15.7496 10.9996 15.7496C10.9246 15.7496 10.8505 15.7665 10.7829 15.799C10.7153 15.8315 10.6558 15.8789 10.609 15.9375L10 16.6996L9.39023 15.9375C9.20039 15.7004 8.79921 15.7004 8.60898 15.9375L7.99999 16.6996L7.39023 15.9375C7.20039 15.7004 6.79921 15.7004 6.60898 15.9375L5.99999 16.6996L5.39023 15.9375C5.20039 15.7004 4.79921 15.7004 4.60898 15.9375L3.99999 16.6996L3.39062 15.9375C3.32739 15.8607 3.2431 15.804 3.14809 15.7744C3.05308 15.7449 2.95151 15.7437 2.85585 15.7711L3.98867 10.098C4.00315 10.0256 4.00141 9.95093 3.98358 9.87927C3.96575 9.80762 3.93228 9.7408 3.88556 9.68363C3.83883 9.62645 3.78003 9.58033 3.71337 9.54858C3.6467 9.51683 3.57383 9.50024 3.49999 9.5H2.17538L2.31249 9.39023C2.37112 9.3434 2.41844 9.28396 2.45097 9.21634C2.4835 9.14872 2.50039 9.07465 2.50039 8.99961C2.50039 8.92457 2.4835 8.8505 2.45097 8.78288C2.41844 8.71526 2.37112 8.65582 2.31249 8.60898L1.55038 8L2.31249 7.39023C2.37112 7.3434 2.41844 7.28396 2.45097 7.21634C2.4835 7.14872 2.50039 7.07465 2.50039 6.99961C2.50039 6.92457 2.4835 6.8505 2.45097 6.78288C2.41844 6.71526 2.37112 6.65582 2.31249 6.60898L2.17538 6.49922H5.40351C5.66642 6.95523 6.04479 7.33396 6.50057 7.59728C6.95634 7.86061 7.47343 7.99925 7.9998 7.99925C8.52617 7.99925 9.04326 7.86061 9.49903 7.59728C9.95481 7.33396 10.3332 6.95523 10.5961 6.49922H13.8246L13.6875 6.60898C13.6288 6.65578 13.5814 6.7152 13.5489 6.78283C13.5163 6.85045 13.4994 6.92455 13.4994 6.99961C13.4994 7.07467 13.5163 7.14877 13.5489 7.21639C13.5814 7.28402 13.6288 7.34344 13.6875 7.39023L14.4496 8L13.6875 8.60977C13.6288 8.65656 13.5814 8.71598 13.5489 8.78361C13.5163 8.85123 13.4994 8.92533 13.4994 9.00039C13.4994 9.07545 13.5163 9.14955 13.5489 9.21717C13.5814 9.2848 13.6288 9.34422 13.6875 9.39102L13.6879 9.39023Z" fill="black"/>
</svg>
